<svg xmlns="http://www.w3.org/2000/svg" version="1.1" xmlns:xlink="http://www.w3.org/1999/xlink" xmlns:svgjs="http://svgjs.com/svgjs" width="1440" height="560" preserveAspectRatio="none" viewBox="0 0 1440 560"><g mask="url(&quot;#SvgjsMask1238&quot;)" fill="none"><rect width="1440" height="560" x="0" y="0" fill="url(#SvgjsLinearGradient1239)"></rect><path d="M190.84206301441432 401.3491803951556L60.874197534355375 373.7236577811223 33.24867492032212 503.69152326118126 163.21654040038106 531.3170458752145z" fill="rgba(28, 83, 142, 0.66)" class="triangle-float1"></path><path d="M1486.04,515.596C1541.895,516.443,1595.881,489.647,1623.504,441.094C1650.851,393.027,1642.771,335.075,1616.399,286.466C1588.537,235.11,1544.407,185.056,1486.04,187.713C1430.252,190.253,1400.623,247.983,1374.736,297.467C1351.407,342.061,1332.735,392.203,1355.61,437.032C1380.335,485.487,1431.647,514.771,1486.04,515.596" fill="rgba(28, 83, 142, 0.66)" class="triangle-float1"></path><path d="M1071.455,389.782C1089.136,389.508,1099.759,371.716,1107.424,355.781C1113.902,342.314,1114.757,327.249,1107.929,313.956C1100.403,299.304,1087.903,286.649,1071.455,285.752C1053.582,284.777,1035.794,293.768,1027.372,309.563C1019.343,324.619,1025.283,341.973,1033.501,356.927C1042.138,372.644,1053.523,390.06,1071.455,389.782" fill="rgba(28, 83, 142, 0.66)" class="triangle-float3"></path><path d="M1021.9362823803783 500.2806070139879L966.232021693156 433.89485421718626 899.8462688963543 489.5991149044086 955.5505295835767 555.9848677012102z" fill="rgba(28, 83, 142, 0.66)" class="triangle-float1"></path><path d="M1332.736,206.263C1364.434,206.765,1395.199,191.742,1410.855,164.176C1426.337,136.915,1422.71,103.318,1406.411,76.537C1390.776,50.846,1362.807,35.322,1332.736,35.813C1303.492,36.29,1277.918,53.653,1263.11,78.875C1248.096,104.448,1244.566,135.745,1258.789,161.767C1273.577,188.823,1301.907,205.775,1332.736,206.263" fill="rgba(28, 83, 142, 0.66)" class="triangle-float2"></path><path d="M934.9349628951403 313.28278714135246L992.294338892275 430.8869360988693 1109.898487849792 373.5275601017345 1052.5391118526572 255.92341114421765z" fill="rgba(28, 83, 142, 0.66)" class="triangle-float1"></path></g><defs><mask id="SvgjsMask1238"><rect width="1440" height="560" fill="#ffffff"></rect></mask><linearGradient x1="84.72%" y1="-39.29%" x2="15.28%" y2="139.29%" gradientUnits="userSpaceOnUse" id="SvgjsLinearGradient1239"><stop stop-color="#0e2a47" offset="0"></stop><stop stop-color="rgba(0, 69, 158, 0.07)" offset="1"></stop></linearGradient><style>
            @keyframes float1 {
                0%{transform: translate(0, 0)}
                50%{transform: translate(-10px, 0)}
                100%{transform: translate(0, 0)}
            }

            .triangle-float1 {
                animation: float1 5s infinite;
            }

            @keyframes float2 {
                0%{transform: translate(0, 0)}
                50%{transform: translate(-5px, -5px)}
                100%{transform: translate(0, 0)}
            }

            .triangle-float2 {
                animation: float2 4s infinite;
            }

            @keyframes float3 {
                0%{transform: translate(0, 0)}
                50%{transform: translate(0, -10px)}
                100%{transform: translate(0, 0)}
            }

            .triangle-float3 {
                animation: float3 6s infinite;
            }
        </style></defs></svg>