<svg xmlns="http://www.w3.org/2000/svg" version="1.1" xmlns:xlink="http://www.w3.org/1999/xlink" xmlns:svgjs="http://svgjs.com/svgjs" width="1440" height="560" preserveAspectRatio="none" viewBox="0 0 1440 560"><g mask="url(&quot;#SvgjsMask1008&quot;)" fill="none"><rect width="1440" height="560" x="0" y="0" fill="rgba(245, 245, 245, 1)"></rect><path d="M-96.82 395.47L-96.82 395.47" stroke="rgba(0, 72, 128, 1)" stroke-width="1.5"></path><path d="M-96.82 395.47L-69.76 511.59" stroke="rgba(0, 72, 128, 1)" stroke-width="1.5"></path><path d="M-96.82 395.47L102.53 358.63" stroke="rgba(0, 72, 128, 1)" stroke-width="1.5"></path><path d="M-69.76 511.59L-69.76 511.59" stroke="rgba(0, 72, 128, 1)" stroke-width="1.5"></path><path d="M-69.76 511.59L-62.2 655.39" stroke="rgba(0, 72, 128, 1)" stroke-width="1.5"></path><path d="M-69.76 511.59L90.51 530.86" stroke="rgba(0, 72, 128, 1)" stroke-width="1.5"></path><path d="M-62.2 655.39L-62.2 655.39" stroke="rgba(0, 72, 128, 1)" stroke-width="1.5"></path><path d="M-62.2 655.39L70.31 659.72" stroke="rgba(0, 72, 128, 1)" stroke-width="1.5"></path><path d="M-62.2 655.39L90.51 530.86" stroke="rgba(0, 72, 128, 1)" stroke-width="1.5"></path><path d="M-62.2 655.39L-96.82 395.47" stroke="rgba(0, 72, 128, 1)" stroke-width="1.5"></path><path d="M-62.2 655.39L233.84 650.94" stroke="rgba(0, 72, 128, 1)" stroke-width="1.5"></path><path d="M-62.2 655.39L235.54 550.99" stroke="rgba(0, 72, 128, 1)" stroke-width="1.5"></path><path d="M102.53 358.63L102.53 358.63" stroke="rgba(0, 72, 128, 1)" stroke-width="1.5"></path><path d="M102.53 358.63L194.24 410.68" stroke="rgba(0, 72, 128, 1)" stroke-width="1.5"></path><path d="M102.53 358.63L90.51 530.86" stroke="rgba(0, 72, 128, 1)" stroke-width="1.5"></path><path d="M102.53 358.63L-69.76 511.59" stroke="rgba(0, 72, 128, 1)" stroke-width="1.5"></path><path d="M90.51 530.86L90.51 530.86" stroke="rgba(0, 72, 128, 1)" stroke-width="1.5"></path><path d="M90.51 530.86L70.31 659.72" stroke="rgba(0, 72, 128, 1)" stroke-width="1.5"></path><path d="M90.51 530.86L235.54 550.99" stroke="rgba(0, 72, 128, 1)" stroke-width="1.5"></path><path d="M70.31 659.72L70.31 659.72" stroke="rgba(0, 72, 128, 1)" stroke-width="1.5"></path><path d="M70.31 659.72L233.84 650.94" stroke="rgba(0, 72, 128, 1)" stroke-width="1.5"></path><path d="M70.31 659.72L235.54 550.99" stroke="rgba(0, 72, 128, 1)" stroke-width="1.5"></path><path d="M70.31 659.72L-69.76 511.59" stroke="rgba(0, 72, 128, 1)" stroke-width="1.5"></path><path d="M70.31 659.72L194.24 410.68" stroke="rgba(0, 72, 128, 1)" stroke-width="1.5"></path><path d="M194.24 410.68L194.24 410.68" stroke="rgba(0, 72, 128, 1)" stroke-width="1.5"></path><path d="M194.24 410.68L235.54 550.99" stroke="rgba(0, 72, 128, 1)" stroke-width="1.5"></path><path d="M194.24 410.68L90.51 530.86" stroke="rgba(0, 72, 128, 1)" stroke-width="1.5"></path><path d="M194.24 410.68L354.82 362.97" stroke="rgba(0, 72, 128, 1)" stroke-width="1.5"></path><path d="M235.54 550.99L235.54 550.99" stroke="rgba(0, 72, 128, 1)" stroke-width="1.5"></path><path d="M235.54 550.99L233.84 650.94" stroke="rgba(0, 72, 128, 1)" stroke-width="1.5"></path><path d="M233.84 650.94L233.84 650.94" stroke="rgba(0, 72, 128, 1)" stroke-width="1.5"></path><path d="M233.84 650.94L382.43 704.92" stroke="rgba(0, 72, 128, 1)" stroke-width="1.5"></path><path d="M233.84 650.94L352.63 536.95" stroke="rgba(0, 72, 128, 1)" stroke-width="1.5"></path><path d="M354.82 362.97L354.82 362.97" stroke="rgba(0, 72, 128, 1)" stroke-width="1.5"></path><path d="M354.82 362.97L352.63 536.95" stroke="rgba(0, 72, 128, 1)" stroke-width="1.5"></path><path d="M354.82 362.97L550.26 388.22" stroke="rgba(0, 72, 128, 1)" stroke-width="1.5"></path><path d="M354.82 362.97L235.54 550.99" stroke="rgba(0, 72, 128, 1)" stroke-width="1.5"></path><path d="M354.82 362.97L518.7 514.88" stroke="rgba(0, 72, 128, 1)" stroke-width="1.5"></path><path d="M354.82 362.97L102.53 358.63" stroke="rgba(0, 72, 128, 1)" stroke-width="1.5"></path><path d="M352.63 536.95L352.63 536.95" stroke="rgba(0, 72, 128, 1)" stroke-width="1.5"></path><path d="M352.63 536.95L235.54 550.99" stroke="rgba(0, 72, 128, 1)" stroke-width="1.5"></path><path d="M352.63 536.95L518.7 514.88" stroke="rgba(0, 72, 128, 1)" stroke-width="1.5"></path><path d="M352.63 536.95L382.43 704.92" stroke="rgba(0, 72, 128, 1)" stroke-width="1.5"></path><path d="M382.43 704.92L382.43 704.92" stroke="rgba(0, 72, 128, 1)" stroke-width="1.5"></path><path d="M382.43 704.92L513.85 712.11" stroke="rgba(0, 72, 128, 1)" stroke-width="1.5"></path><path d="M382.43 704.92L235.54 550.99" stroke="rgba(0, 72, 128, 1)" stroke-width="1.5"></path><path d="M382.43 704.92L518.7 514.88" stroke="rgba(0, 72, 128, 1)" stroke-width="1.5"></path><path d="M382.43 704.92L70.31 659.72" stroke="rgba(0, 72, 128, 1)" stroke-width="1.5"></path><path d="M550.26 388.22L550.26 388.22" stroke="rgba(0, 72, 128, 1)" stroke-width="1.5"></path><path d="M550.26 388.22L668.26 376.09" stroke="rgba(0, 72, 128, 1)" stroke-width="1.5"></path><path d="M550.26 388.22L518.7 514.88" stroke="rgba(0, 72, 128, 1)" stroke-width="1.5"></path><path d="M518.7 514.88L518.7 514.88" stroke="rgba(0, 72, 128, 1)" stroke-width="1.5"></path><path d="M518.7 514.88L655.53 501.64" stroke="rgba(0, 72, 128, 1)" stroke-width="1.5"></path><path d="M513.85 712.11L513.85 712.11" stroke="rgba(0, 72, 128, 1)" stroke-width="1.5"></path><path d="M513.85 712.11L518.7 514.88" stroke="rgba(0, 72, 128, 1)" stroke-width="1.5"></path><path d="M513.85 712.11L352.63 536.95" stroke="rgba(0, 72, 128, 1)" stroke-width="1.5"></path><path d="M513.85 712.11L655.53 501.64" stroke="rgba(0, 72, 128, 1)" stroke-width="1.5"></path><path d="M513.85 712.11L233.84 650.94" stroke="rgba(0, 72, 128, 1)" stroke-width="1.5"></path><path d="M668.26 376.09L668.26 376.09" stroke="rgba(0, 72, 128, 1)" stroke-width="1.5"></path><path d="M668.26 376.09L655.53 501.64" stroke="rgba(0, 72, 128, 1)" stroke-width="1.5"></path><path d="M668.26 376.09L797.55 388.77" stroke="rgba(0, 72, 128, 1)" stroke-width="1.5"></path><path d="M655.53 501.64L655.53 501.64" stroke="rgba(0, 72, 128, 1)" stroke-width="1.5"></path><path d="M842.4 101.48L842.4 101.48" stroke="rgba(0, 72, 128, 1)" stroke-width="1.5"></path><path d="M842.4 101.48L961.13 60.78" stroke="rgba(0, 72, 128, 1)" stroke-width="1.5"></path><path d="M842.4 101.48L862.26 262.43" stroke="rgba(0, 72, 128, 1)" stroke-width="1.5"></path><path d="M842.4 101.48L1005.92 219.76" stroke="rgba(0, 72, 128, 1)" stroke-width="1.5"></path><path d="M862.26 262.43L862.26 262.43" stroke="rgba(0, 72, 128, 1)" stroke-width="1.5"></path><path d="M862.26 262.43L944.21 344.56" stroke="rgba(0, 72, 128, 1)" stroke-width="1.5"></path><path d="M862.26 262.43L797.55 388.77" stroke="rgba(0, 72, 128, 1)" stroke-width="1.5"></path><path d="M862.26 262.43L1005.92 219.76" stroke="rgba(0, 72, 128, 1)" stroke-width="1.5"></path><path d="M862.26 262.43L961.13 60.78" stroke="rgba(0, 72, 128, 1)" stroke-width="1.5"></path><path d="M797.55 388.77L797.55 388.77" stroke="rgba(0, 72, 128, 1)" stroke-width="1.5"></path><path d="M797.55 388.77L944.21 344.56" stroke="rgba(0, 72, 128, 1)" stroke-width="1.5"></path><path d="M797.55 388.77L852.93 546.92" stroke="rgba(0, 72, 128, 1)" stroke-width="1.5"></path><path d="M797.55 388.77L655.53 501.64" stroke="rgba(0, 72, 128, 1)" stroke-width="1.5"></path><path d="M852.93 546.92L852.93 546.92" stroke="rgba(0, 72, 128, 1)" stroke-width="1.5"></path><path d="M852.93 546.92L824 638.7" stroke="rgba(0, 72, 128, 1)" stroke-width="1.5"></path><path d="M852.93 546.92L973.39 684.74" stroke="rgba(0, 72, 128, 1)" stroke-width="1.5"></path><path d="M824 638.7L824 638.7" stroke="rgba(0, 72, 128, 1)" stroke-width="1.5"></path><path d="M824 638.7L973.39 684.74" stroke="rgba(0, 72, 128, 1)" stroke-width="1.5"></path><path d="M824 638.7L655.53 501.64" stroke="rgba(0, 72, 128, 1)" stroke-width="1.5"></path><path d="M824 638.7L797.55 388.77" stroke="rgba(0, 72, 128, 1)" stroke-width="1.5"></path><path d="M824 638.7L668.26 376.09" stroke="rgba(0, 72, 128, 1)" stroke-width="1.5"></path><path d="M974.83 -81.66L974.83 -81.66" stroke="rgba(0, 72, 128, 1)" stroke-width="1.5"></path><path d="M974.83 -81.66L961.13 60.78" stroke="rgba(0, 72, 128, 1)" stroke-width="1.5"></path><path d="M974.83 -81.66L1129.3 -44.92" stroke="rgba(0, 72, 128, 1)" stroke-width="1.5"></path><path d="M974.83 -81.66L842.4 101.48" stroke="rgba(0, 72, 128, 1)" stroke-width="1.5"></path><path d="M974.83 -81.66L1162.5 100.87" stroke="rgba(0, 72, 128, 1)" stroke-width="1.5"></path><path d="M961.13 60.78L961.13 60.78" stroke="rgba(0, 72, 128, 1)" stroke-width="1.5"></path><path d="M961.13 60.78L1005.92 219.76" stroke="rgba(0, 72, 128, 1)" stroke-width="1.5"></path><path d="M961.13 60.78L1129.3 -44.92" stroke="rgba(0, 72, 128, 1)" stroke-width="1.5"></path><path d="M1005.92 219.76L1005.92 219.76" stroke="rgba(0, 72, 128, 1)" stroke-width="1.5"></path><path d="M1005.92 219.76L944.21 344.56" stroke="rgba(0, 72, 128, 1)" stroke-width="1.5"></path><path d="M1005.92 219.76L1162.5 100.87" stroke="rgba(0, 72, 128, 1)" stroke-width="1.5"></path><path d="M1005.92 219.76L1269.68 213.92" stroke="rgba(0, 72, 128, 1)" stroke-width="1.5"></path><path d="M944.21 344.56L944.21 344.56" stroke="rgba(0, 72, 128, 1)" stroke-width="1.5"></path><path d="M973.39 684.74L973.39 684.74" stroke="rgba(0, 72, 128, 1)" stroke-width="1.5"></path><path d="M973.39 684.74L1147.2 707.59" stroke="rgba(0, 72, 128, 1)" stroke-width="1.5"></path><path d="M973.39 684.74L1149.77 489.7" stroke="rgba(0, 72, 128, 1)" stroke-width="1.5"></path><path d="M1129.3 -44.92L1129.3 -44.92" stroke="rgba(0, 72, 128, 1)" stroke-width="1.5"></path><path d="M1129.3 -44.92L1240.57 51.4" stroke="rgba(0, 72, 128, 1)" stroke-width="1.5"></path><path d="M1129.3 -44.92L1162.5 100.87" stroke="rgba(0, 72, 128, 1)" stroke-width="1.5"></path><path d="M1162.5 100.87L1162.5 100.87" stroke="rgba(0, 72, 128, 1)" stroke-width="1.5"></path><path d="M1162.5 100.87L1240.57 51.4" stroke="rgba(0, 72, 128, 1)" stroke-width="1.5"></path><path d="M1149.77 489.7L1149.77 489.7" stroke="rgba(0, 72, 128, 1)" stroke-width="1.5"></path><path d="M1149.77 489.7L1256.26 509.52" stroke="rgba(0, 72, 128, 1)" stroke-width="1.5"></path><path d="M1149.77 489.7L1260.14 361.61" stroke="rgba(0, 72, 128, 1)" stroke-width="1.5"></path><path d="M1149.77 489.7L1147.2 707.59" stroke="rgba(0, 72, 128, 1)" stroke-width="1.5"></path><path d="M1147.2 707.59L1147.2 707.59" stroke="rgba(0, 72, 128, 1)" stroke-width="1.5"></path><path d="M1147.2 707.59L1259.96 709.25" stroke="rgba(0, 72, 128, 1)" stroke-width="1.5"></path><path d="M1147.2 707.59L1256.26 509.52" stroke="rgba(0, 72, 128, 1)" stroke-width="1.5"></path><path d="M1308.22 -65.81L1308.22 -65.81" stroke="rgba(0, 72, 128, 1)" stroke-width="1.5"></path><path d="M1308.22 -65.81L1240.57 51.4" stroke="rgba(0, 72, 128, 1)" stroke-width="1.5"></path><path d="M1308.22 -65.81L1451.31 -59.76" stroke="rgba(0, 72, 128, 1)" stroke-width="1.5"></path><path d="M1308.22 -65.81L1129.3 -44.92" stroke="rgba(0, 72, 128, 1)" stroke-width="1.5"></path><path d="M1308.22 -65.81L1162.5 100.87" stroke="rgba(0, 72, 128, 1)" stroke-width="1.5"></path><path d="M1240.57 51.4L1240.57 51.4" stroke="rgba(0, 72, 128, 1)" stroke-width="1.5"></path><path d="M1240.57 51.4L1269.68 213.92" stroke="rgba(0, 72, 128, 1)" stroke-width="1.5"></path><path d="M1269.68 213.92L1269.68 213.92" stroke="rgba(0, 72, 128, 1)" stroke-width="1.5"></path><path d="M1269.68 213.92L1404.47 261.26" stroke="rgba(0, 72, 128, 1)" stroke-width="1.5"></path><path d="M1269.68 213.92L1260.14 361.61" stroke="rgba(0, 72, 128, 1)" stroke-width="1.5"></path><path d="M1269.68 213.92L1162.5 100.87" stroke="rgba(0, 72, 128, 1)" stroke-width="1.5"></path><path d="M1260.14 361.61L1260.14 361.61" stroke="rgba(0, 72, 128, 1)" stroke-width="1.5"></path><path d="M1260.14 361.61L1392.23 405.29" stroke="rgba(0, 72, 128, 1)" stroke-width="1.5"></path><path d="M1260.14 361.61L1256.26 509.52" stroke="rgba(0, 72, 128, 1)" stroke-width="1.5"></path><path d="M1256.26 509.52L1256.26 509.52" stroke="rgba(0, 72, 128, 1)" stroke-width="1.5"></path><path d="M1256.26 509.52L1392.23 405.29" stroke="rgba(0, 72, 128, 1)" stroke-width="1.5"></path><path d="M1256.26 509.52L1455.09 517.83" stroke="rgba(0, 72, 128, 1)" stroke-width="1.5"></path><path d="M1259.96 709.25L1259.96 709.25" stroke="rgba(0, 72, 128, 1)" stroke-width="1.5"></path><path d="M1259.96 709.25L1395.56 667.91" stroke="rgba(0, 72, 128, 1)" stroke-width="1.5"></path><path d="M1259.96 709.25L1256.26 509.52" stroke="rgba(0, 72, 128, 1)" stroke-width="1.5"></path><path d="M1259.96 709.25L1149.77 489.7" stroke="rgba(0, 72, 128, 1)" stroke-width="1.5"></path><path d="M1259.96 709.25L1455.09 517.83" stroke="rgba(0, 72, 128, 1)" stroke-width="1.5"></path><path d="M1451.31 -59.76L1451.31 -59.76" stroke="rgba(0, 72, 128, 1)" stroke-width="1.5"></path><path d="M1451.31 -59.76L1606.4 -111.5" stroke="rgba(0, 72, 128, 1)" stroke-width="1.5"></path><path d="M1451.31 -59.76L1591.86 99.8" stroke="rgba(0, 72, 128, 1)" stroke-width="1.5"></path><path d="M1451.31 -59.76L1240.57 51.4" stroke="rgba(0, 72, 128, 1)" stroke-width="1.5"></path><path d="M1451.31 -59.76L1606.54 188.24" stroke="rgba(0, 72, 128, 1)" stroke-width="1.5"></path><path d="M1404.47 261.26L1404.47 261.26" stroke="rgba(0, 72, 128, 1)" stroke-width="1.5"></path><path d="M1404.47 261.26L1392.23 405.29" stroke="rgba(0, 72, 128, 1)" stroke-width="1.5"></path><path d="M1404.47 261.26L1260.14 361.61" stroke="rgba(0, 72, 128, 1)" stroke-width="1.5"></path><path d="M1404.47 261.26L1606.54 188.24" stroke="rgba(0, 72, 128, 1)" stroke-width="1.5"></path><path d="M1404.47 261.26L1607.77 339.33" stroke="rgba(0, 72, 128, 1)" stroke-width="1.5"></path><path d="M1392.23 405.29L1392.23 405.29" stroke="rgba(0, 72, 128, 1)" stroke-width="1.5"></path><path d="M1392.23 405.29L1455.09 517.83" stroke="rgba(0, 72, 128, 1)" stroke-width="1.5"></path><path d="M1455.09 517.83L1455.09 517.83" stroke="rgba(0, 72, 128, 1)" stroke-width="1.5"></path><path d="M1455.09 517.83L1570.37 514.21" stroke="rgba(0, 72, 128, 1)" stroke-width="1.5"></path><path d="M1455.09 517.83L1395.56 667.91" stroke="rgba(0, 72, 128, 1)" stroke-width="1.5"></path><path d="M1395.56 667.91L1395.56 667.91" stroke="rgba(0, 72, 128, 1)" stroke-width="1.5"></path><path d="M1395.56 667.91L1544.89 692.85" stroke="rgba(0, 72, 128, 1)" stroke-width="1.5"></path><path d="M1395.56 667.91L1256.26 509.52" stroke="rgba(0, 72, 128, 1)" stroke-width="1.5"></path><path d="M1395.56 667.91L1570.37 514.21" stroke="rgba(0, 72, 128, 1)" stroke-width="1.5"></path><path d="M1395.56 667.91L1147.2 707.59" stroke="rgba(0, 72, 128, 1)" stroke-width="1.5"></path><path d="M1606.4 -111.5L1606.4 -111.5" stroke="rgba(0, 72, 128, 1)" stroke-width="1.5"></path><path d="M1606.4 -111.5L1591.86 99.8" stroke="rgba(0, 72, 128, 1)" stroke-width="1.5"></path><path d="M1591.86 99.8L1591.86 99.8" stroke="rgba(0, 72, 128, 1)" stroke-width="1.5"></path><path d="M1591.86 99.8L1606.54 188.24" stroke="rgba(0, 72, 128, 1)" stroke-width="1.5"></path><path d="M1606.54 188.24L1606.54 188.24" stroke="rgba(0, 72, 128, 1)" stroke-width="1.5"></path><path d="M1606.54 188.24L1607.77 339.33" stroke="rgba(0, 72, 128, 1)" stroke-width="1.5"></path><path d="M1607.77 339.33L1607.77 339.33" stroke="rgba(0, 72, 128, 1)" stroke-width="1.5"></path><path d="M1607.77 339.33L1570.37 514.21" stroke="rgba(0, 72, 128, 1)" stroke-width="1.5"></path><path d="M1570.37 514.21L1570.37 514.21" stroke="rgba(0, 72, 128, 1)" stroke-width="1.5"></path><path d="M1570.37 514.21L1544.89 692.85" stroke="rgba(0, 72, 128, 1)" stroke-width="1.5"></path><path d="M1570.37 514.21L1392.23 405.29" stroke="rgba(0, 72, 128, 1)" stroke-width="1.5"></path><path d="M1544.89 692.85L1544.89 692.85" stroke="rgba(0, 72, 128, 1)" stroke-width="1.5"></path><path d="M1544.89 692.85L1455.09 517.83" stroke="rgba(0, 72, 128, 1)" stroke-width="1.5"></path><path d="M1544.89 692.85L1259.96 709.25" stroke="rgba(0, 72, 128, 1)" stroke-width="1.5"></path><path d="M1544.89 692.85L1392.23 405.29" stroke="rgba(0, 72, 128, 1)" stroke-width="1.5"></path><path d="M1544.89 692.85L1256.26 509.52" stroke="rgba(0, 72, 128, 1)" stroke-width="1.5"></path><circle r="5" cx="-96.82" cy="395.47" fill="rgba(0, 72, 128, 1)"></circle><circle r="5" cx="-69.76" cy="511.59" fill="rgba(0, 72, 128, 1)"></circle><circle r="5" cx="-62.2" cy="655.39" fill="rgba(0, 72, 128, 1)"></circle><circle r="5" cx="102.53" cy="358.63" fill="rgba(0, 72, 128, 1)"></circle><circle r="5" cx="90.51" cy="530.86" fill="rgba(0, 72, 128, 1)"></circle><circle r="5" cx="70.31" cy="659.72" fill="rgba(0, 72, 128, 1)"></circle><circle r="5" cx="194.24" cy="410.68" fill="rgba(0, 72, 128, 1)"></circle><circle r="5" cx="235.54" cy="550.99" fill="rgba(0, 72, 128, 1)"></circle><circle r="5" cx="233.84" cy="650.94" fill="rgba(0, 72, 128, 1)"></circle><circle r="5" cx="354.82" cy="362.97" fill="rgba(0, 72, 128, 1)"></circle><circle r="5" cx="352.63" cy="536.95" fill="rgba(0, 72, 128, 1)"></circle><circle r="5" cx="382.43" cy="704.92" fill="rgba(0, 72, 128, 1)"></circle><circle r="5" cx="550.26" cy="388.22" fill="rgba(0, 72, 128, 1)"></circle><circle r="5" cx="518.7" cy="514.88" fill="rgba(0, 72, 128, 1)"></circle><circle r="5" cx="513.85" cy="712.11" fill="rgba(0, 72, 128, 1)"></circle><circle r="5" cx="668.26" cy="376.09" fill="rgba(0, 72, 128, 1)"></circle><circle r="5" cx="655.53" cy="501.64" fill="rgba(0, 72, 128, 1)"></circle><circle r="5" cx="842.4" cy="101.48" fill="rgba(0, 72, 128, 1)"></circle><circle r="5" cx="862.26" cy="262.43" fill="rgba(0, 72, 128, 1)"></circle><circle r="5" cx="797.55" cy="388.77" fill="rgba(0, 72, 128, 1)"></circle><circle r="5" cx="852.93" cy="546.92" fill="rgba(0, 72, 128, 1)"></circle><circle r="5" cx="824" cy="638.7" fill="rgba(0, 72, 128, 1)"></circle><circle r="5" cx="974.83" cy="-81.66" fill="rgba(0, 72, 128, 1)"></circle><circle r="5" cx="961.13" cy="60.78" fill="rgba(0, 72, 128, 1)"></circle><circle r="5" cx="1005.92" cy="219.76" fill="rgba(0, 72, 128, 1)"></circle><circle r="5" cx="944.21" cy="344.56" fill="rgba(0, 72, 128, 1)"></circle><circle r="5" cx="973.39" cy="684.74" fill="rgba(0, 72, 128, 1)"></circle><circle r="5" cx="1129.3" cy="-44.92" fill="rgba(0, 72, 128, 1)"></circle><circle r="5" cx="1162.5" cy="100.87" fill="rgba(0, 72, 128, 1)"></circle><circle r="5" cx="1149.77" cy="489.7" fill="rgba(0, 72, 128, 1)"></circle><circle r="5" cx="1147.2" cy="707.59" fill="rgba(0, 72, 128, 1)"></circle><circle r="5" cx="1308.22" cy="-65.81" fill="rgba(0, 72, 128, 1)"></circle><circle r="5" cx="1240.57" cy="51.4" fill="rgba(0, 72, 128, 1)"></circle><circle r="5" cx="1269.68" cy="213.92" fill="rgba(0, 72, 128, 1)"></circle><circle r="5" cx="1260.14" cy="361.61" fill="rgba(0, 72, 128, 1)"></circle><circle r="5" cx="1256.26" cy="509.52" fill="rgba(0, 72, 128, 1)"></circle><circle r="5" cx="1259.96" cy="709.25" fill="rgba(0, 72, 128, 1)"></circle><circle r="5" cx="1451.31" cy="-59.76" fill="rgba(0, 72, 128, 1)"></circle><circle r="5" cx="1404.47" cy="261.26" fill="rgba(0, 72, 128, 1)"></circle><circle r="5" cx="1392.23" cy="405.29" fill="rgba(0, 72, 128, 1)"></circle><circle r="5" cx="1455.09" cy="517.83" fill="rgba(0, 72, 128, 1)"></circle><circle r="5" cx="1395.56" cy="667.91" fill="rgba(0, 72, 128, 1)"></circle><circle r="5" cx="1606.4" cy="-111.5" fill="rgba(0, 72, 128, 1)"></circle><circle r="5" cx="1591.86" cy="99.8" fill="rgba(0, 72, 128, 1)"></circle><circle r="5" cx="1606.54" cy="188.24" fill="rgba(0, 72, 128, 1)"></circle><circle r="5" cx="1607.77" cy="339.33" fill="rgba(0, 72, 128, 1)"></circle><circle r="5" cx="1570.37" cy="514.21" fill="rgba(0, 72, 128, 1)"></circle><circle r="5" cx="1544.89" cy="692.85" fill="rgba(0, 72, 128, 1)"></circle><path d="M47.41 489.26L47.41 489.26" stroke="hsl(206.39999999999998, 100%, 46.9%)" stroke-width="1.5"></path><path d="M47.41 489.26L-91.33 545.52" stroke="hsl(206.39999999999998, 100%, 46.9%)" stroke-width="1.5"></path><path d="M47.41 489.26L242.58 543.99" stroke="hsl(206.39999999999998, 100%, 46.9%)" stroke-width="1.5"></path><path d="M47.41 489.26L209.89 701.06" stroke="hsl(206.39999999999998, 100%, 46.9%)" stroke-width="1.5"></path><path d="M47.41 489.26L400.26 495.26" stroke="hsl(206.39999999999998, 100%, 46.9%)" stroke-width="1.5"></path><path d="M47.41 489.26L404.47 674.36" stroke="hsl(206.39999999999998, 100%, 46.9%)" stroke-width="1.5"></path><path d="M404.47 674.36L404.47 674.36" stroke="hsl(206.39999999999998, 100%, 46.9%)" stroke-width="1.5"></path><path d="M404.47 674.36L489.28 687.07" stroke="hsl(206.39999999999998, 100%, 46.9%)" stroke-width="1.5"></path><path d="M404.47 674.36L507.9 538.44" stroke="hsl(206.39999999999998, 100%, 46.9%)" stroke-width="1.5"></path><path d="M854.48 354.01L854.48 354.01" stroke="hsl(206.39999999999998, 100%, 46.9%)" stroke-width="1.5"></path><path d="M854.48 354.01L988.88 345.82" stroke="hsl(206.39999999999998, 100%, 46.9%)" stroke-width="1.5"></path><path d="M854.48 354.01L843.18 489.49" stroke="hsl(206.39999999999998, 100%, 46.9%)" stroke-width="1.5"></path><path d="M854.48 354.01L940.52 536.49" stroke="hsl(206.39999999999998, 100%, 46.9%)" stroke-width="1.5"></path><path d="M854.48 354.01L1087.57 233.39" stroke="hsl(206.39999999999998, 100%, 46.9%)" stroke-width="1.5"></path><path d="M854.48 354.01L640.65 506.59" stroke="hsl(206.39999999999998, 100%, 46.9%)" stroke-width="1.5"></path><path d="M854.48 354.01L1117.35 374.44" stroke="hsl(206.39999999999998, 100%, 46.9%)" stroke-width="1.5"></path><path d="M1240.59 -92.93L1240.59 -92.93" stroke="hsl(206.39999999999998, 100%, 46.9%)" stroke-width="1.5"></path><path d="M1240.59 -92.93L1409.73 -97.32" stroke="hsl(206.39999999999998, 100%, 46.9%)" stroke-width="1.5"></path><path d="M1240.59 -92.93L1293.69 103.39" stroke="hsl(206.39999999999998, 100%, 46.9%)" stroke-width="1.5"></path><path d="M1240.59 -92.93L1452.08 69.73" stroke="hsl(206.39999999999998, 100%, 46.9%)" stroke-width="1.5"></path><path d="M1240.59 -92.93L1241.75 199.82" stroke="hsl(206.39999999999998, 100%, 46.9%)" stroke-width="1.5"></path><path d="M1452.08 69.73L1452.08 69.73" stroke="hsl(206.39999999999998, 100%, 46.9%)" stroke-width="1.5"></path><path d="M1452.08 69.73L1418.24 198.18" stroke="hsl(206.39999999999998, 100%, 46.9%)" stroke-width="1.5"></path><path d="M1452.08 69.73L1596.25 43.3" stroke="hsl(206.39999999999998, 100%, 46.9%)" stroke-width="1.5"></path><path d="M1452.08 69.73L1293.69 103.39" stroke="hsl(206.39999999999998, 100%, 46.9%)" stroke-width="1.5"></path><path d="M1452.08 69.73L1409.73 -97.32" stroke="hsl(206.39999999999998, 100%, 46.9%)" stroke-width="1.5"></path><path d="M1452.08 69.73L1552.67 -95.14" stroke="hsl(206.39999999999998, 100%, 46.9%)" stroke-width="1.5"></path><path d="M1452.08 69.73L1610.36 219.61" stroke="hsl(206.39999999999998, 100%, 46.9%)" stroke-width="1.5"></path><path d="M1418.24 198.18L1418.24 198.18" stroke="hsl(206.39999999999998, 100%, 46.9%)" stroke-width="1.5"></path><path d="M1418.24 198.18L1293.69 103.39" stroke="hsl(206.39999999999998, 100%, 46.9%)" stroke-width="1.5"></path><path d="M1418.24 198.18L1420.2 367.13" stroke="hsl(206.39999999999998, 100%, 46.9%)" stroke-width="1.5"></path><path d="M1388.31 497.84L1388.31 497.84" stroke="hsl(206.39999999999998, 100%, 46.9%)" stroke-width="1.5"></path><path d="M1388.31 497.84L1420.2 367.13" stroke="hsl(206.39999999999998, 100%, 46.9%)" stroke-width="1.5"></path><path d="M1388.31 497.84L1278.12 675.23" stroke="hsl(206.39999999999998, 100%, 46.9%)" stroke-width="1.5"></path><path d="M1388.31 497.84L1560.55 685.17" stroke="hsl(206.39999999999998, 100%, 46.9%)" stroke-width="1.5"></path><path d="M1388.31 497.84L1111.6 523.74" stroke="hsl(206.39999999999998, 100%, 46.9%)" stroke-width="1.5"></path><path d="M1596.25 43.3L1596.25 43.3" stroke="hsl(206.39999999999998, 100%, 46.9%)" stroke-width="1.5"></path><path d="M1596.25 43.3L1552.67 -95.14" stroke="hsl(206.39999999999998, 100%, 46.9%)" stroke-width="1.5"></path><path d="M1560.55 685.17L1560.55 685.17" stroke="hsl(206.39999999999998, 100%, 46.9%)" stroke-width="1.5"></path><path d="M1560.55 685.17L1278.12 675.23" stroke="hsl(206.39999999999998, 100%, 46.9%)" stroke-width="1.5"></path><path d="M-91.33 545.52L-91.33 545.52" stroke="hsl(206.39999999999998, 100%, 46.9%)" stroke-width="1.5"></path><path d="M-91.33 545.52L242.58 543.99" stroke="hsl(206.39999999999998, 100%, 46.9%)" stroke-width="1.5"></path><path d="M-91.33 545.52L209.89 701.06" stroke="hsl(206.39999999999998, 100%, 46.9%)" stroke-width="1.5"></path><path d="M-91.33 545.52L400.26 495.26" stroke="hsl(206.39999999999998, 100%, 46.9%)" stroke-width="1.5"></path><path d="M-91.33 545.52L404.47 674.36" stroke="hsl(206.39999999999998, 100%, 46.9%)" stroke-width="1.5"></path><path d="M-91.33 545.52L489.28 687.07" stroke="hsl(206.39999999999998, 100%, 46.9%)" stroke-width="1.5"></path><path d="M242.58 543.99L242.58 543.99" stroke="hsl(206.39999999999998, 100%, 46.9%)" stroke-width="1.5"></path><path d="M242.58 543.99L209.89 701.06" stroke="hsl(206.39999999999998, 100%, 46.9%)" stroke-width="1.5"></path><path d="M242.58 543.99L400.26 495.26" stroke="hsl(206.39999999999998, 100%, 46.9%)" stroke-width="1.5"></path><path d="M242.58 543.99L404.47 674.36" stroke="hsl(206.39999999999998, 100%, 46.9%)" stroke-width="1.5"></path><path d="M242.58 543.99L507.9 538.44" stroke="hsl(206.39999999999998, 100%, 46.9%)" stroke-width="1.5"></path><path d="M209.89 701.06L209.89 701.06" stroke="hsl(206.39999999999998, 100%, 46.9%)" stroke-width="1.5"></path><path d="M209.89 701.06L404.47 674.36" stroke="hsl(206.39999999999998, 100%, 46.9%)" stroke-width="1.5"></path><path d="M209.89 701.06L489.28 687.07" stroke="hsl(206.39999999999998, 100%, 46.9%)" stroke-width="1.5"></path><path d="M400.26 495.26L400.26 495.26" stroke="hsl(206.39999999999998, 100%, 46.9%)" stroke-width="1.5"></path><path d="M400.26 495.26L507.9 538.44" stroke="hsl(206.39999999999998, 100%, 46.9%)" stroke-width="1.5"></path><path d="M400.26 495.26L404.47 674.36" stroke="hsl(206.39999999999998, 100%, 46.9%)" stroke-width="1.5"></path><path d="M400.26 495.26L489.28 687.07" stroke="hsl(206.39999999999998, 100%, 46.9%)" stroke-width="1.5"></path><path d="M507.9 538.44L507.9 538.44" stroke="hsl(206.39999999999998, 100%, 46.9%)" stroke-width="1.5"></path><path d="M507.9 538.44L640.65 506.59" stroke="hsl(206.39999999999998, 100%, 46.9%)" stroke-width="1.5"></path><path d="M507.9 538.44L489.28 687.07" stroke="hsl(206.39999999999998, 100%, 46.9%)" stroke-width="1.5"></path><path d="M489.28 687.07L489.28 687.07" stroke="hsl(206.39999999999998, 100%, 46.9%)" stroke-width="1.5"></path><path d="M489.28 687.07L696.98 657.56" stroke="hsl(206.39999999999998, 100%, 46.9%)" stroke-width="1.5"></path><path d="M640.65 506.59L640.65 506.59" stroke="hsl(206.39999999999998, 100%, 46.9%)" stroke-width="1.5"></path><path d="M640.65 506.59L696.98 657.56" stroke="hsl(206.39999999999998, 100%, 46.9%)" stroke-width="1.5"></path><path d="M640.65 506.59L843.18 489.49" stroke="hsl(206.39999999999998, 100%, 46.9%)" stroke-width="1.5"></path><path d="M640.65 506.59L489.28 687.07" stroke="hsl(206.39999999999998, 100%, 46.9%)" stroke-width="1.5"></path><path d="M640.65 506.59L400.26 495.26" stroke="hsl(206.39999999999998, 100%, 46.9%)" stroke-width="1.5"></path><path d="M696.98 657.56L696.98 657.56" stroke="hsl(206.39999999999998, 100%, 46.9%)" stroke-width="1.5"></path><path d="M696.98 657.56L813.12 698.13" stroke="hsl(206.39999999999998, 100%, 46.9%)" stroke-width="1.5"></path><path d="M843.18 489.49L843.18 489.49" stroke="hsl(206.39999999999998, 100%, 46.9%)" stroke-width="1.5"></path><path d="M843.18 489.49L940.52 536.49" stroke="hsl(206.39999999999998, 100%, 46.9%)" stroke-width="1.5"></path><path d="M843.18 489.49L988.88 345.82" stroke="hsl(206.39999999999998, 100%, 46.9%)" stroke-width="1.5"></path><path d="M843.18 489.49L813.12 698.13" stroke="hsl(206.39999999999998, 100%, 46.9%)" stroke-width="1.5"></path><path d="M843.18 489.49L696.98 657.56" stroke="hsl(206.39999999999998, 100%, 46.9%)" stroke-width="1.5"></path><path d="M813.12 698.13L813.12 698.13" stroke="hsl(206.39999999999998, 100%, 46.9%)" stroke-width="1.5"></path><path d="M813.12 698.13L976.65 669.61" stroke="hsl(206.39999999999998, 100%, 46.9%)" stroke-width="1.5"></path><path d="M813.12 698.13L940.52 536.49" stroke="hsl(206.39999999999998, 100%, 46.9%)" stroke-width="1.5"></path><path d="M813.12 698.13L640.65 506.59" stroke="hsl(206.39999999999998, 100%, 46.9%)" stroke-width="1.5"></path><path d="M813.12 698.13L1107.75 676.5" stroke="hsl(206.39999999999998, 100%, 46.9%)" stroke-width="1.5"></path><path d="M988.88 345.82L988.88 345.82" stroke="hsl(206.39999999999998, 100%, 46.9%)" stroke-width="1.5"></path><path d="M988.88 345.82L1117.35 374.44" stroke="hsl(206.39999999999998, 100%, 46.9%)" stroke-width="1.5"></path><path d="M988.88 345.82L1087.57 233.39" stroke="hsl(206.39999999999998, 100%, 46.9%)" stroke-width="1.5"></path><path d="M988.88 345.82L940.52 536.49" stroke="hsl(206.39999999999998, 100%, 46.9%)" stroke-width="1.5"></path><path d="M940.52 536.49L940.52 536.49" stroke="hsl(206.39999999999998, 100%, 46.9%)" stroke-width="1.5"></path><path d="M940.52 536.49L976.65 669.61" stroke="hsl(206.39999999999998, 100%, 46.9%)" stroke-width="1.5"></path><path d="M940.52 536.49L1111.6 523.74" stroke="hsl(206.39999999999998, 100%, 46.9%)" stroke-width="1.5"></path><path d="M976.65 669.61L976.65 669.61" stroke="hsl(206.39999999999998, 100%, 46.9%)" stroke-width="1.5"></path><path d="M976.65 669.61L1107.75 676.5" stroke="hsl(206.39999999999998, 100%, 46.9%)" stroke-width="1.5"></path><path d="M976.65 669.61L1111.6 523.74" stroke="hsl(206.39999999999998, 100%, 46.9%)" stroke-width="1.5"></path><path d="M976.65 669.61L843.18 489.49" stroke="hsl(206.39999999999998, 100%, 46.9%)" stroke-width="1.5"></path><path d="M976.65 669.61L696.98 657.56" stroke="hsl(206.39999999999998, 100%, 46.9%)" stroke-width="1.5"></path><path d="M1087.57 233.39L1087.57 233.39" stroke="hsl(206.39999999999998, 100%, 46.9%)" stroke-width="1.5"></path><path d="M1087.57 233.39L1117.35 374.44" stroke="hsl(206.39999999999998, 100%, 46.9%)" stroke-width="1.5"></path><path d="M1087.57 233.39L1241.75 199.82" stroke="hsl(206.39999999999998, 100%, 46.9%)" stroke-width="1.5"></path><path d="M1087.57 233.39L1293.69 103.39" stroke="hsl(206.39999999999998, 100%, 46.9%)" stroke-width="1.5"></path><path d="M1087.57 233.39L1111.6 523.74" stroke="hsl(206.39999999999998, 100%, 46.9%)" stroke-width="1.5"></path><path d="M1117.35 374.44L1117.35 374.44" stroke="hsl(206.39999999999998, 100%, 46.9%)" stroke-width="1.5"></path><path d="M1117.35 374.44L1111.6 523.74" stroke="hsl(206.39999999999998, 100%, 46.9%)" stroke-width="1.5"></path><path d="M1117.35 374.44L1241.75 199.82" stroke="hsl(206.39999999999998, 100%, 46.9%)" stroke-width="1.5"></path><path d="M1111.6 523.74L1111.6 523.74" stroke="hsl(206.39999999999998, 100%, 46.9%)" stroke-width="1.5"></path><path d="M1111.6 523.74L1107.75 676.5" stroke="hsl(206.39999999999998, 100%, 46.9%)" stroke-width="1.5"></path><path d="M1111.6 523.74L988.88 345.82" stroke="hsl(206.39999999999998, 100%, 46.9%)" stroke-width="1.5"></path><path d="M1111.6 523.74L1278.12 675.23" stroke="hsl(206.39999999999998, 100%, 46.9%)" stroke-width="1.5"></path><path d="M1107.75 676.5L1107.75 676.5" stroke="hsl(206.39999999999998, 100%, 46.9%)" stroke-width="1.5"></path><path d="M1293.69 103.39L1293.69 103.39" stroke="hsl(206.39999999999998, 100%, 46.9%)" stroke-width="1.5"></path><path d="M1293.69 103.39L1241.75 199.82" stroke="hsl(206.39999999999998, 100%, 46.9%)" stroke-width="1.5"></path><path d="M1241.75 199.82L1241.75 199.82" stroke="hsl(206.39999999999998, 100%, 46.9%)" stroke-width="1.5"></path><path d="M1241.75 199.82L1418.24 198.18" stroke="hsl(206.39999999999998, 100%, 46.9%)" stroke-width="1.5"></path><path d="M1241.75 199.82L1420.2 367.13" stroke="hsl(206.39999999999998, 100%, 46.9%)" stroke-width="1.5"></path><path d="M1241.75 199.82L1452.08 69.73" stroke="hsl(206.39999999999998, 100%, 46.9%)" stroke-width="1.5"></path><path d="M1278.12 675.23L1278.12 675.23" stroke="hsl(206.39999999999998, 100%, 46.9%)" stroke-width="1.5"></path><path d="M1278.12 675.23L1107.75 676.5" stroke="hsl(206.39999999999998, 100%, 46.9%)" stroke-width="1.5"></path><path d="M1409.73 -97.32L1409.73 -97.32" stroke="hsl(206.39999999999998, 100%, 46.9%)" stroke-width="1.5"></path><path d="M1409.73 -97.32L1552.67 -95.14" stroke="hsl(206.39999999999998, 100%, 46.9%)" stroke-width="1.5"></path><path d="M1409.73 -97.32L1293.69 103.39" stroke="hsl(206.39999999999998, 100%, 46.9%)" stroke-width="1.5"></path><path d="M1409.73 -97.32L1596.25 43.3" stroke="hsl(206.39999999999998, 100%, 46.9%)" stroke-width="1.5"></path><path d="M1409.73 -97.32L1418.24 198.18" stroke="hsl(206.39999999999998, 100%, 46.9%)" stroke-width="1.5"></path><path d="M1420.2 367.13L1420.2 367.13" stroke="hsl(206.39999999999998, 100%, 46.9%)" stroke-width="1.5"></path><path d="M1420.2 367.13L1610.36 219.61" stroke="hsl(206.39999999999998, 100%, 46.9%)" stroke-width="1.5"></path><path d="M1420.2 367.13L1293.69 103.39" stroke="hsl(206.39999999999998, 100%, 46.9%)" stroke-width="1.5"></path><path d="M1552.67 -95.14L1552.67 -95.14" stroke="hsl(206.39999999999998, 100%, 46.9%)" stroke-width="1.5"></path><path d="M1610.36 219.61L1610.36 219.61" stroke="hsl(206.39999999999998, 100%, 46.9%)" stroke-width="1.5"></path><path d="M1610.36 219.61L1596.25 43.3" stroke="hsl(206.39999999999998, 100%, 46.9%)" stroke-width="1.5"></path><path d="M1610.36 219.61L1418.24 198.18" stroke="hsl(206.39999999999998, 100%, 46.9%)" stroke-width="1.5"></path><circle r="25" cx="47.41" cy="489.26" fill="url(#SvgjsRadialGradient1009)"></circle><circle r="25" cx="404.47" cy="674.36" fill="url(#SvgjsRadialGradient1009)"></circle><circle r="25" cx="854.48" cy="354.01" fill="url(#SvgjsRadialGradient1009)"></circle><circle r="25" cx="1240.59" cy="-92.93" fill="url(#SvgjsRadialGradient1009)"></circle><circle r="25" cx="1452.08" cy="69.73" fill="url(#SvgjsRadialGradient1009)"></circle><circle r="25" cx="1418.24" cy="198.18" fill="url(#SvgjsRadialGradient1009)"></circle><circle r="25" cx="1388.31" cy="497.84" fill="url(#SvgjsRadialGradient1009)"></circle><circle r="25" cx="1596.25" cy="43.3" fill="url(#SvgjsRadialGradient1009)"></circle><circle r="25" cx="1560.55" cy="685.17" fill="url(#SvgjsRadialGradient1009)"></circle><circle r="5" cx="-91.33" cy="545.52" fill="#80b3dc"></circle><circle r="5" cx="242.58" cy="543.99" fill="#80b3dc"></circle><circle r="5" cx="209.89" cy="701.06" fill="#80b3dc"></circle><circle r="5" cx="400.26" cy="495.26" fill="#80b3dc"></circle><circle r="5" cx="507.9" cy="538.44" fill="#80b3dc"></circle><circle r="5" cx="489.28" cy="687.07" fill="#80b3dc"></circle><circle r="5" cx="640.65" cy="506.59" fill="#80b3dc"></circle><circle r="5" cx="696.98" cy="657.56" fill="#80b3dc"></circle><circle r="5" cx="843.18" cy="489.49" fill="#80b3dc"></circle><circle r="5" cx="813.12" cy="698.13" fill="#80b3dc"></circle><circle r="5" cx="988.88" cy="345.82" fill="#80b3dc"></circle><circle r="5" cx="940.52" cy="536.49" fill="#80b3dc"></circle><circle r="5" cx="976.65" cy="669.61" fill="#80b3dc"></circle><circle r="5" cx="1087.57" cy="233.39" fill="#80b3dc"></circle><circle r="5" cx="1117.35" cy="374.44" fill="#80b3dc"></circle><circle r="5" cx="1111.6" cy="523.74" fill="#80b3dc"></circle><circle r="5" cx="1107.75" cy="676.5" fill="#80b3dc"></circle><circle r="5" cx="1293.69" cy="103.39" fill="#80b3dc"></circle><circle r="5" cx="1241.75" cy="199.82" fill="#80b3dc"></circle><circle r="5" cx="1278.12" cy="675.23" fill="#80b3dc"></circle><circle r="5" cx="1409.73" cy="-97.32" fill="#80b3dc"></circle><circle r="5" cx="1420.2" cy="367.13" fill="#80b3dc"></circle><circle r="5" cx="1552.67" cy="-95.14" fill="#80b3dc"></circle><circle r="5" cx="1610.36" cy="219.61" fill="#80b3dc"></circle></g><defs><mask id="SvgjsMask1008"><rect width="1440" height="560" fill="#ffffff"></rect></mask><radialGradient id="SvgjsRadialGradient1009"><stop stop-color="#ffffff" offset="0.1"></stop><stop stop-color="rgba(0, 103, 184, 1)" offset="0.2"></stop><stop stop-color="rgba(0, 103, 184, 0)" offset="1"></stop></radialGradient></defs></svg>